# xmcd
#
# Track frame offsets: 
#        225
#        11089
#        24058
#        34546
#        42061
#        54276
#        64106
#        76810
#        97259
#        112941
#
# Disc length: 1591 seconds
#
# Revision: 1
# Processed by: cddbd v1.5.1PL2 Copyright (c) Steve Scherf et al.
# Submitted via: ExactAudioCopy v0.95b4
#
DISCID=6a06340a
DTITLE=Various Artist - Louisiana Hayride - Classic Country Radio KWKH
DYEAR=2000
DGENRE=Country
TTITLE0=George Jones - The Race Is On
TTITLE1=Hank Snow - My Filipino Rose
TTITLE2=Webb Pierce - I Don't Care
TTITLE3=Johnny Cash - Five Feet High And Rising
TTITLE4=Jim Reeves - Am I Losing You
TTITLE5=Faron Young - Live Fast, Love Hard, Die Young
TTITLE6=Kitty Wells - Making Believe
TTITLE7=Hank Williams - Jambalaya
TTITLE8=Slim Whitman/ Careless Hands
TTITLE9=Ernest Tubb - Walking The Floor Over You
EXTD=
EXTT0=
EXTT1=
EXTT2=
EXTT3=
EXTT4=
EXTT5=
EXTT6=
EXTT7=
EXTT8=
EXTT9=
PLAYORDER=
